<mxfile host="app.diagrams.net" agent="Mozilla/5.0 (Windows NT 10.0; Win64; x64) AppleWebKit/537.36 (KHTML, like Gecko) Chrome/130.0.0.0 Safari/537.36" version="24.8.3">
  <diagram name="PÃ¡gina-1" id="WvRyxk6PXsDEB4z57DiI">
    <mxGraphModel dx="1760" dy="2105" grid="1" gridSize="10" guides="1" tooltips="1" connect="1" arrows="1" fold="1" page="1" pageScale="1" pageWidth="1654" pageHeight="1169" math="0" shadow="0">
      <root>
        <mxCell id="0" />
        <mxCell id="1" parent="0" />
        <mxCell id="NhRSzBWuvwSLOzlCMQlL-2" value="&lt;b&gt;&lt;font color=&quot;#860303&quot; style=&quot;font-size: 15px;&quot;&gt;INTERFAZ - BI - WEE&lt;/font&gt;&lt;/b&gt;" style="points=[[0,0],[0.25,0],[0.5,0],[0.75,0],[1,0],[1,0.25],[1,0.5],[1,0.75],[1,1],[0.75,1],[0.5,1],[0.25,1],[0,1],[0,0.75],[0,0.5],[0,0.25]];outlineConnect=0;gradientColor=none;html=1;whiteSpace=wrap;fontSize=12;fontStyle=0;container=1;pointerEvents=0;collapsible=0;recursiveResize=0;shape=mxgraph.aws4.group;grIcon=mxgraph.aws4.group_on_premise;strokeColor=#050505;fillColor=none;verticalAlign=top;align=left;spacingLeft=30;fontColor=#5A6C86;dashed=0;strokeWidth=2;" vertex="1" parent="1">
          <mxGeometry x="240" y="-40" width="1600" height="570.76" as="geometry" />
        </mxCell>
        <mxCell id="NhRSzBWuvwSLOzlCMQlL-52" style="edgeStyle=orthogonalEdgeStyle;rounded=0;orthogonalLoop=1;jettySize=auto;html=1;" edge="1" parent="NhRSzBWuvwSLOzlCMQlL-2" source="NhRSzBWuvwSLOzlCMQlL-3" target="NhRSzBWuvwSLOzlCMQlL-49">
          <mxGeometry relative="1" as="geometry" />
        </mxCell>
        <mxCell id="NhRSzBWuvwSLOzlCMQlL-3" value="" style="shape=image;verticalLabelPosition=bottom;labelBackgroundColor=default;verticalAlign=top;aspect=fixed;imageAspect=0;image=data:image/png,iVBORw0KGgoAAAANSUhEUgAAA4QAAAH0CAMAAABSLRPhAAAAM1BMVEV/0O8grePf8/tAuOdgxOu/5/ef3PMfrePg8/vA6PdfxOtAueeg3POA0O8/uOcAod////+DubmIAAAco0lEQVR4XuzTMQEAAAwCoEVY/7QW8PeBDtxPAT0hICFICEgIEgISgoSAhCAhICFICEgIEgISgoSAhCAhICFICEgIEgISgoSAhCAhICFICEgIEgISgoSAhCAhICFICEgIEgISgoSAhCAhICFICEgIEgISgoSAhCAhICFICEgIEgISgoQgISAhSAhICBICEoKEgIQgISAhSAhICBICEoKEgIQgISAhSAhICBICEoKEgIQgISAhSAhICBICEoKEgIQgISAhSAhICBICEoKEgIQgISAhSAhICBICEoKEgIQgISAhSAhICBICEoKEgIQgISAhSAhICBICEoKEgIQgIUgISBj27m7HcRQIoHBVQWF3thPq/Z92tdqbGSk9Nh6TgHO+F+gbjvh12szcvRQRud2ySCnF3Sx6A4jQXORRf6aPWykepwOI0KxISnUnTbfiFucAiNBclnrAkpkUQYRnBPioGzZCjKMAIjR51BPokRABIvRcT6QSDQAiNKlnW24ldgGI0ERrF3rz2AAQoUmqHal4/AwgQrvV7rTEcwARWq5tVDWlpHrGKQ1AhJbqHppEvtxtjd+sZl9fJed0LEOACF3rFs3y7bHJvkpOWjcsv2YIEKHoZn8eTczvaedsCBChLBvrT49DrOT059nQAiDCMK0/awqwPURmQxBhmGwk0vn2f/H4aCBCedEk5ZnJEETYciuhYnGy9TuRIYhw50pUSnRhPx2YqsUHAhHKO+alkpgM/wcitHfVsD7PcCnxUUCE/sYJyTKTIYhQ3pvB+jTDxeJDgAgtvX0msvucS1JAui1FJV5sTTMuSQHptBRNFq8nEy5JAemyFFWPt1jvnzcZggh9gJXoxuNxiQsDEfpor1Xs/lEVgghLh9Vfh8dzKS4KRJjHHO7yKW9JQYRp1IXfqtMckgJyZoPqMQiT61cIIrQ09M7rvnFtMgpAzmtQYiirXvrCEERo4080JjP8MikgZzUYA7pftkIQoaU5LuLKVfeFIMJJGoyw4SsE5IwGcwzL9II3FSDCNNPTzFUv93YGRJjr70oMzXToIyRA/vphpsfgLF+qQhBh6d1g/6+bckwMROitDZpEbxYbVrlMhSBCa23Q+w/5pNJ6rykxKxBhamvQUv+7Od/zJ+yfa1wXgghT27movOIkROt/pO2mYokpgQi9aWtl6RWrP9l5/7fq/NtCEKE1vVXzl/zzXN/9Otvm3xaCCFNLg1J/8Yhe0v7HMDbkthCQPg3axu6xz8dKWhquODUmAyL0hiFsy2t+7czbPhi8D7gtBOTghtC322ge8f1/7i3NuC0EEbaPX6lP+Iv+AUza/5h78ZgHiFD2j/Rcn1nidFab/zOoTbctBBG2D95Un8vdFqMt+8/7aF9hAXJkvHtDGf0WpN+1tle4psG+8AXkwHiXQw1W7bAYba/QdMYTUhCh7t0QpvoH0nUxuvfIxcf6HBKQ5h+00KMNVvUOV4Ttc6FMdzYDIvyXvXNbYRgIgai6bpImNPb/v7ZAoVCgaILsBeZAng3gMDImu653+BrMT0jN7qpQjtmWhQAiLMFhtJgHNRhG/U3FNlI2AwBdPVVGnKHV8acGw6ivQp3rFl8AEQa9jMwhs+PZfNhJSMfIZgCgrFSmmkPmelwtgsbMfX2NDYAIY6mMWIy1xTDq2/YxjxUCiJBi3lIsiDZIZfx14TbPmgJAhLFUpliYmvgn7/1w5jmKFQJAV4xwuRvKpPpOzSi28SRWCCDCULRZ7QraYBj109xlSCsEIgIR3mlVNofMr9coqVhxDqJqCRAiPc9vI/GqutT+b1WJ9pN55c9Tu4iQHSP0rCk/IZWsYjXLCh+5axhueAvyYT/svQT4r4N4p35KFFL7xbqI8M3evTa7repgANYFMLnC//+1Z7ra0z0tK3lBwglJqpl82XvqOLaeJQG+nHv2IJbRoHnNKI7Qk4HXmQjZd5fkZyGUI+plnuNQqJSyBMKu2YsyHJvMy1EccedR4WHqudKPQpi4dASnhxukUhZBmHqaLC3jofs3o7gw5dOcVD/M7LdT+RyEQlvpjI0ea1DLQxF6C2Eslkjmg2OIsG8pPMw8Wfo5CIXLQPADGYqWZRDGHjZsQshirBOW4NixVkgzEV7ta6Afg5DKYGzxqQb3R4gvk8ZXnjxgsbDYYuswzXaEE89WeC+EONFXLIZaFkLIuBBKsUbcvxnFe8/AjQGhS46UD0EYiyk2qfvHpSyE8NxRCIMZIfvPnP/LEqjNZoRsIx3eCSE2uGQxjOU5CDGw4Gfhb0i5mINw5dn8CN2ky2cglGKP3RXqEMK4MW/8+7PZEeKMEGd/6CwW/i/ryMLoROifebp8BkIpnqAnFukI160nIzzjRIjFE2w4OuYIGNDVidBfCvkzEKozbXaNsBRCxRMbWlxB3gz1D+kz6EcNCO1bS+XZCP8ZrKUNVqKUzimluh9CXHjEW5v8Cz+h+CLgzZIfoWtr/M4IcdYwUYqHLPGQEgV9jsEzOI+PRRjwydHiDDWcOrN4vF2eipANhfBdEeKs0UMzcjxc1G3Q343G+kSEeJFQijvS3j3MWEsdHQj9l+bpuyLEPTfJ9yTkwr5j4e5GQn0iwgR4GxpEzxwi+cEz3jJ5EPonnj4CIY/Nk0tSh0H/kFCmIBQi3UKKDoQB7K8jgiFBrRFhPdcJCM2FVT8CYRrPgQM/zmAs4IiYEMbCgc5BNxpDGGAypTJRBk5QfyjcNs9FyIbT/+4I2TCBJbSTQZzUaQZCLb+UZWYZQYhLLE9BuBkWsa2B/5hEK0J/KQyfgdD288hm0I9QJiCkEmv6EVKz8g2ECHgA3757QyqzvgpuneYivBqy8x0R+h/ekVnriyKMJdZcWLUwVSmhHyHBkhzKpIi+ZtRfdU9IDUboL4XhMxAG6xGS59zkWP0IQ6k1F6pVdKuVtn6ECktymRWMW4R9vRNiihH6AZXPQGi/uO9lEXL4QviLYyzSjRD2VOcyLQg1o9PiChFFE0J/KUxviRBnjbw/wpJ+IAwxUtFapUSMsCV2NLeIYcrVa9pJ2dyPZueg8DDhfi3+UIT17RFKib9SjCl/mexFGOCQsOBIwoaxmrHkau0hHxFznYyQxZCc74uQClD/ju0o/UCY5KRfJvsRMuoYUgcLw3sE7WNPqbngCCg12ITQXQr5LRHieZn0AQhP+oXw61Nr6h8TwiwKfVUnuK9e0/4LQxNGyHCdPE5GuFlHhOsj9KMv8gEIieNPgMS1VtXaiTBBhJ1FJzNQMel9T9r7ZRGuFFoQekuhfgpC/kCEufBPhMKhxhItCJOxGxWIaOJTTaV3rwghUAtCZymM5VMR1g9AWKWEQ/zBQQ7p+ypAqNk0dqM0tqa/uW7UiN29q+4wKDx4b9fSl0QokYhUt03DkVLsKmrlYQglpq+9Y7R3+yOswht9IVSmakHIxgI1+qzz4GlGUUlBxuKOCDFrGWrVwxhR/fUUsF8fmoRQiMHbk57ZjgptYO/2RtjeFsnXwjpyKxO7h4THJkVRRFcz+jupUESEXQwIfaUwTEOI034KQqFb/UwADtl1s5dz7/j23kk4hvDjw3/ncQjHH5/w8/Mf5P//J/3mH4Tfn/8YSDzLbfrAGNnW7gTnGC4YNMw32QaFApQihL5SWNZB6H+A/VFQ++tHOH/v4milEOcKOEYY0YiGRoZe2dqQxvGZ1Wy8co2BUjtC7PryUgiFUN7RAMLrbIIBqGCSF0GYQHeGi1syYOJoWyKUJqvGD8tpKkIeSrXySgjJ96j64H8upH/vXgMhIYSwtmGz2MfFMpbEI9AIkkP9CAl/550OOiyMUEtXULeS9IQXPel6CC0rFIOdpbDh3IntiCpECJKD/QhjUwr7lZS0MEItnRG6m4b5BnGwvABCBuf4PJroB8PBMTSjXR0JIUd+hJIalv2FsK6LUN3P88mA64Ne9LSl9RGCYwQRsvUhMdok5yh3fHQUJUf0I8z9qaZNUi6LUKc8xQC3rn6DGEd8JYRgLR80I8MzpAlZwqLUtGAwF2FT3zh23+W6LEKd8cAEKvsolDIWLIsjzGjgzIiSuVnYxNCMjvWjjKZH0wSEbSnsLoSLIMR8jH1/G5ye8JIZlrURHryTo2I/hwE3vKBoQe4CEJIfYSuJpa+JklURxjnvn8wKxmiTDOK4vjhCZAO8Hh67EsfoX2xrFJMRSl8pDKVRsAxCnOYcKMWaY6LAoOdAY32muMuAkEG/tizCs3OF4ng7VXHwQHMB0u55CLuXpZt9WxXhBax6S2IwNwAXEjgkK0S+4Vq+vBxI0bhEJMvXh/5SlEVy/v1/pf0H52/+gfz+1N0Qxo4hoashja4Hlp4su0dNJjoRSvO1XYVwUYSxYyCXeMJwga/HFGXChTL6B4B8KW2E/e+i2A9hwoMuR0PKsbJjKQpjp0cgbC1xTyFcFaH2HHwJXafoVGAwh2OKjkLIuSP7eGWEBJoohNA5tt9czSjuewNAeJ2DMONSSA23RRHGvmUFufSUwlw6Y7vxMjGcj9q1cyW8MEIamHZqde/+9PxsqaDn2Qjb6sH47rqlEOKHpOHUCAANDg5puBBqZ/rxwggDAEV4XsbRkPrftM0GhIf5CAWVhXOjdFWEN2jhaRfGGnBsmoYKIXenX3xdhAEhxOnqj7obwm0SwrYUgv1MayDEiSb9iwVpTkvEJBPeMSOgaXsjhHSP/CNe5aSLIGxLIbh0e1WE3MLqJbGhwaOfId/KP4x/WxfhCZwVB0LRHZpRjBB3K3k+wnZHrnd3M62K8DzCPveVpVSGYyNw9DEDAY/XeB+Ead9XLOGfGnwIyzSE8V4pjE3yrIowgPN71zVNnB+gHgVhZEWRXhahOhDWy/7vFaVFELZLYnrnKNIaCLFjAUcDDLscLWlhwSUhjpyq8I4IsZB8cgLEiUeLtKMtT463C6Esi3BMfe6+elJovCUVuPY/1Czru07MCDpJ7vC92Zf3n5i5c6fSLWqhroowDj4VRvvTIV/YXQv59k/AucsfitA/Qxr3RXidiDDezKEG7rIIE0AF0IKzJdAhYAMGQ2AJJa6KkPZE6J8hDdWHUB+AEJbCthAuizD4EBJCm2NQ++lPY9knAOG7XLYWERJxGeS6B8Lz1Au4b+/LBgrhggh5MMvE8j4bSUHZ8gKvBBAAhPSZCPEMqXfztA7CdmWKvrV5rOsiLJMQ4sg5paBjN8oGgAAcj7AqwrMNIe7K/TOkmAhul8MDEIJS2F66vS5CAY0Ics91NOSQ6J7FYD4c7fhA3/R+QoywZkcz6kcIqidNRZhPHS/21rouwgjQozznaguRs3bMkIbBCYPwIggPvjvrqYe+FWH0I6RHImzBMSiEqyFMxRnVHpIYlUIdTD56QYRS2xA/QtFJM6OWK3oA3DQXYW7FnRtmH4oQRyZQCp0I+W0QWl5y521G7bcyxccibEthe+n2WyOU6grhu6eQ3xRhRhmL76zHcbE2ozhQUjwYoaCXNnFdGSH5EU5XqP8Q1tOEZy1mtc2M4sgWhAyQ2hHiWpKWRhj8Fzg5IzcK2Y4wvQjCquBHnWYcddmpGa1nyxil7IhQxnboH0I8ExgNV62Bxf2FEap1tR4H7XQ2g/OtTHUqQvxL6R/C4ak2en+E5Hs/IU15qaP5TXbsW6sP8xFmUAj/IRztmq7vjzDhWw7wzAwOsTSjOBwP4J6PECdy+IdwvBRu4Pe9AcIIRkgZX9w3f4Y0Gmh7J0f9CPEBk38IcRBA+H6zo1Xg9OgcL1mdzei0h/TzvghrAL/rdZYoeDjiHu/hfbPFetDRJQNCsvb6/mYUt08oVWUmQvxD5cUQUp0Z5kSRN7tsDaxROG4WwkHzexrTWiNA6kZYA9iddRGmJRFGK8LwMggDAHWYRUZOk5tRvDIOuh3eB6GAI/Uyd1GE+pToRaiDCMO6CAk+m8zfj+ItARm2blSA3DARIe7gj3V5hALQPyb41hx3GMwUfhmEEdHWaWgukyfYkGckl3ZCmMEPgwiNWVfeA+HNQ0yDCMvLIBQEgKapyTqzGa1nuCnT5KgfYVUweN4HoYwhxIx5MYQRIAAI04oI25MDlLrZiLsZxSUaGQOApiCMoBBaEOI0iX6E6l3223GJokUYxzYkr4GQLV3fNuAmTWxGpTiHhFr3QlgVdO0AoS1NkgHhgmsU6WZ+CUAINlQXRniAzdVEOCe0qNAfwTskDPMQ4lKYvAhx1pEfYXzmoBC/3+o0dM2kvhDCjDzFiaUwT2tGpbiHhPMQ4lJYLQjT0Ey0+hHK/EFh9A4Jjw3CzsRb9YUwqB8NpnRPsxrS6C2EmAdwYUOIS2EyIYxDV0YUP8LKs/vRhLaBaJQEOoNeMrQ0QkJF7YRnU4wzpI5TXlCg43ichxAfs+pFiA90siMEtcYRCUnGDY7cPvo6MlxJSyM8oFp0mFkKhW9G9RdCZCzsgRBrJRtCGZmJ1jGE167fl2bcEaHimPIOdwYzLAOaZTpCmYgwI4QZLyw8PAoKgUPCaQixCbEhrAPD73MZQ7h1jdk37CfhYsRkH2Ske0S1X7NWN8LDjBu3CO+v2soOPX4KDYRCu3VfhBIPh/jzE6UaEWr/gVaEMHR5Po0ONbRwhygyn1a556aQYWg5DWGaiZDAMcf96PbwBV0UCY2bwnSEODBClEoc+9OX7m9LcKJhPqJNuWwMdhdDUTTHLeB4gKGlE2Fu9s2EEKd0tBWesFgzWuAlvbQkQrg6xCDh+xGGTs2EnxPK0rFLG1nudYtg7zbp4xzqfIRbnIhQYBuXCgpaqhktAf+1WRIhXh3i1HtA6P6us3Se6g2zYenZJT7G25yJwXkc+KskADNG2NerqwkhTmq2XvQZV2pGS4Q5XxdF2J52WFFESwfCDBK82RhqJePWUIC9E/MxfSfw2Du91rF3QmCKwIAQDkn9CCMcTBFWuFIzqrgbXRVhKwegiNzZnGhbVHu7ni21brRpzXp7FT4GopRijDElIh0Z2ccC/iwJ6GpHEOK5kWOchlDg+pEUGGGdZrRE2GnJ0ghxRQkpRomJBq59oG8L05G+IoFrM1jTb2YiBAqSlCmh3TP1W/hpmhjkpgth/r62089wIqwEE/hkzPz5EbBBrnil/kUQxoIDI8Qyrj3LwtumupU2WoWZZyCMAEJ3iBshzr3NizDDPjdjhCyPMEgFR4JtbHoVhFVnIMSbujYdgy/VBSo09zNmzH6EsifCeoKidQ2FseBgfE1JfRmEcR7CiBHiGYDeAZzwTIOuvaM6C2HVPREm+OOl4NhkBYMlwQN4fB2ENU1DWLUToegEM/kCbFin2yVYR5Z+hLInwoxnWMICCsXzvDbQn6yKsF6mIZROhFV4hhmaYrCNfDIa9COsaQ5CvFToASBPN1giTvi6KkLPGwQ0IIQ1AYTwO7EZd0XtuPEik9GgH2HVHRHGOaWw8LN70aK4EIblERrqklaMsBJC2C63ec56vrCFIBNMZWM74EcovB9CKc5SuH9HmlzjeQJy1kBoHwWF2iIcUHgFXq2ZLuRfHnT06LHORlglzECI8yF5FGz0hLUJPOcCUn0xhMOTHKkChCB7r/Y2mGN19Y54c9ZWV3Odj7DKZTeEglFndbYA/nzFIfgvZ3wphO3FaW0Eqb0Iaw4A4VgFZsJeiLsJUv/JiYw1GxHib/YjxKUQQN21JXUN8clUCNdHWOV8kyHnWgFCeDCvoIwBgiByCoaxIIp8Dzefa90LYRXifRDmRrW9HLE8tBXFwM6gEK6IsM1kLW1wiLUihHhT19vNl942I0Nk9C5ApfGkEbko2DMrQuxQjQjdpZB7FZI8sAxiE9w4NSIMf4UPYQp/RhqsKPxH90b6R6T7JmJM1PfNIufwNxkmqsORcwrK35mhbM+Os/Jfmm0Hf/znxHT+7xCSCSGeIMWVYP78jGvNN3VMrKb/sXd3WZHrMBRGJTlyDOTiM//R3kceBE38U5STOnsCdK/ub1l2goPrif/0IuKOP2TF/DiyyJH9DUOseD6OnEWyv5lhgmKeD8lesDppeA7prUfDkQqmGDnbjguh4nmIBONLYUn1vN0xQcMwevGFkBgh0oltvdUGGybIwx+7r+svhMQIY2C79TYxe9mx0fc20ioLIZE0XSeVML4txBQfYxtCD3+idREjLGG6G/pNkvc/jFDtDgshMUJsZ7ZPRVsGxHFvQxtCCavlyogRmoaGBnZpjinKyO7TQqnPQySNR5HqgweWj7vksO9DKRuei0haN2CfGDqcef+zd2YS7nIqQ4wwns2M3zw4zrsbhF5pGCVGGBc5tZEKDZNYd4MppLo0YoTx7FNH7i3ANKmzQb/iqQwxQuRzJx723999nEL6GrTwN3kuIulZd7z78pCMabyrQaTFXholkp4t2G69E6lhGhtusDqugRhhHEi19+I5TPTR0aCHxyXPRiR9d59IX4UbJpL2n2Eh1gshRlj07NVx0r8lHH99VHDPYZQYYdwW9lwLjplKjarfuEFihMinb3MrHz3vrI1vCtVxdk7ecC3ECONuT9vvORdMJW0fLPDrbwiJEZZ0fi2RGhmmemtq3OuSwyiRDDyb284V+wVzlTCK3r5BYoTIDUuPybQHFOOvYlu9x4aQGCEkVHj+lDRjMgnL4LkGE66LGKF9tFyoXeQRW8KY1tb06qviqogRxq2eesM3TDFdWAZPNWi4MmKEMG37xsuhj9uIpXOft0gLH8oQCUYqPNWAycPu98xnnj3a3RokRoiiJ05n4ufVDdNZKviN6e0aJEaIUhsrhElNeAqvN2yQGCG8uUIUX6HBjHsgRojc/hh+hQY33AMxwnjT744l5XrXh/TECGOFhvXIBdZBIpk16algMZbCzvVWiBHCdOn/5F5vfi5KjDB+k1AN65D7N0iMMK6FKquOouq4I2KEsFSXHEm9vkiDxAjjxyfUFhxFFbdFjDDe6KSy2ihaExZGJPPvPNt9qWWwCu6NGCGKLrQYen297SAxQpS4GMoik+j6oyiRzBoBVzigkfqqoygxQhStT59JXV94FCVGiCL1uRlaqi89ihIjBKQGKk9MsApeCzFClDSQ4fggylGUGCGQtQa7GB5LtHIZJEb49RZbpJv9UYLcDRIjBCzVaH/PeAiTWjmJEiNEvHE70nefX6DWiJMoMUIUqd9SccwjW/1WKnhRxAjjTBqpPGIM5SRKjDAqW/3evm8+GqDUH+gBIkYYvokW7Z/iwwFGmkHECMPM+JM9tYZoOQTIQZQYYdNjw0jTe3bDL8yybKn+UzIQMcLTq2HcJm45u7sZvpi5exb5rL8TAxEj/Ek5Um2gun+q1gYqIGKEv02lqT6IioGIEXaOpeMkg4gRnlXyVqdSAREjbGPHluoUugmIGGGXcmx1jCZxEDHC54SoSd5AxAgnbRGTNvbHAIkRzmZ2nNgm6ibi/7dnx0YAgzAAA+2z4ShSsP+0gSGS6n8HVdogwu+sMZ+I7q6qO+ozs6o7jjnWBhH+BkQIiBBECIgQRAiIEEQIiBBECIgQRAiIEEQIiBBECIgQRAiIEEQIiBBECIgQRAiIEEQIiBBECIgQRAiIEEQIiBBECIgQRAiIEEQIiBBECIgQRAiIEEQIiBBECIgQRAiIEEQIiBBECIgQRAiIEEQIiBBECIgQRAgiBEQIIgRECCIERAgiBEQIIgRECCIERAgiBEQIIgRECCIERAgiBEQIIgRECCIERAgiBEQIIgRECCIERAgiBEQIIgRECCIERAgiBEQIIgRECCIERAgiBEQIIgRECCIERAgiBEQIIgRECCIERAgiBEQIIgRECCIERAgiBEQIIgReM1JAubOhi1wAAAAASUVORK5CYII=;rotation=-90;" vertex="1" parent="NhRSzBWuvwSLOzlCMQlL-2">
          <mxGeometry x="320" y="206.95000000000002" width="298.97" height="166.09" as="geometry" />
        </mxCell>
        <mxCell id="NhRSzBWuvwSLOzlCMQlL-4" value="IDN" style="rounded=0;whiteSpace=wrap;html=1;fillColor=#f8cecc;strokeColor=#b85450;strokeWidth=2;fontSize=17;fontStyle=1" vertex="1" parent="NhRSzBWuvwSLOzlCMQlL-2">
          <mxGeometry x="1188.97" y="50" width="120" height="60" as="geometry" />
        </mxCell>
        <mxCell id="NhRSzBWuvwSLOzlCMQlL-5" value="CIO" style="rounded=0;whiteSpace=wrap;html=1;fillColor=#f8cecc;strokeColor=#b85450;strokeWidth=2;fontSize=17;fontStyle=1" vertex="1" parent="NhRSzBWuvwSLOzlCMQlL-2">
          <mxGeometry x="1188.97" y="120" width="120" height="60" as="geometry" />
        </mxCell>
        <mxCell id="NhRSzBWuvwSLOzlCMQlL-6" value="ADN BONOS" style="rounded=0;whiteSpace=wrap;html=1;fillColor=#f8cecc;strokeColor=#b85450;strokeWidth=2;fontSize=17;fontStyle=1" vertex="1" parent="NhRSzBWuvwSLOzlCMQlL-2">
          <mxGeometry x="1188.97" y="189.99" width="120" height="60" as="geometry" />
        </mxCell>
        <mxCell id="NhRSzBWuvwSLOzlCMQlL-7" value="DWH" style="rounded=0;whiteSpace=wrap;html=1;fillColor=#f8cecc;strokeColor=#b85450;strokeWidth=2;fontSize=17;fontStyle=1" vertex="1" parent="NhRSzBWuvwSLOzlCMQlL-2">
          <mxGeometry x="1188.97" y="259.46000000000004" width="120" height="60" as="geometry" />
        </mxCell>
        <mxCell id="NhRSzBWuvwSLOzlCMQlL-8" value="GIBS" style="rounded=0;whiteSpace=wrap;html=1;fillColor=#f8cecc;strokeColor=#b85450;strokeWidth=2;fontSize=17;fontStyle=1" vertex="1" parent="NhRSzBWuvwSLOzlCMQlL-2">
          <mxGeometry x="1188.97" y="330" width="120" height="60" as="geometry" />
        </mxCell>
        <mxCell id="NhRSzBWuvwSLOzlCMQlL-9" value="NPS" style="rounded=0;whiteSpace=wrap;html=1;fillColor=#f8cecc;strokeColor=#b85450;strokeWidth=2;fontSize=17;fontStyle=1" vertex="1" parent="NhRSzBWuvwSLOzlCMQlL-2">
          <mxGeometry x="1188.97" y="400" width="120" height="60" as="geometry" />
        </mxCell>
        <mxCell id="NhRSzBWuvwSLOzlCMQlL-10" value="SESAS" style="rounded=0;whiteSpace=wrap;html=1;fillColor=#f8cecc;strokeColor=#b85450;strokeWidth=2;fontSize=17;fontStyle=1" vertex="1" parent="NhRSzBWuvwSLOzlCMQlL-2">
          <mxGeometry x="1328.97" y="50" width="120" height="60" as="geometry" />
        </mxCell>
        <mxCell id="NhRSzBWuvwSLOzlCMQlL-11" value="EBR" style="rounded=0;whiteSpace=wrap;html=1;fillColor=#f8cecc;strokeColor=#b85450;strokeWidth=2;fontSize=17;fontStyle=1" vertex="1" parent="NhRSzBWuvwSLOzlCMQlL-2">
          <mxGeometry x="1328.97" y="120" width="120" height="60" as="geometry" />
        </mxCell>
        <mxCell id="NhRSzBWuvwSLOzlCMQlL-12" value="MATRIZ DE RIESGOS" style="rounded=0;whiteSpace=wrap;html=1;fillColor=#f8cecc;strokeColor=#b85450;strokeWidth=2;fontSize=17;fontStyle=1" vertex="1" parent="NhRSzBWuvwSLOzlCMQlL-2">
          <mxGeometry x="1328.97" y="189.99" width="120" height="60" as="geometry" />
        </mxCell>
        <mxCell id="NhRSzBWuvwSLOzlCMQlL-13" value="POLIZAS CANCELADAS" style="rounded=0;whiteSpace=wrap;html=1;fillColor=#f8cecc;strokeColor=#b85450;strokeWidth=2;fontSize=17;fontStyle=1" vertex="1" parent="NhRSzBWuvwSLOzlCMQlL-2">
          <mxGeometry x="1328.97" y="259.46000000000004" width="120" height="60" as="geometry" />
        </mxCell>
        <mxCell id="NhRSzBWuvwSLOzlCMQlL-14" value="AMIS GMM" style="rounded=0;whiteSpace=wrap;html=1;fillColor=#f8cecc;strokeColor=#b85450;strokeWidth=2;fontSize=17;fontStyle=1" vertex="1" parent="NhRSzBWuvwSLOzlCMQlL-2">
          <mxGeometry x="1328.97" y="330" width="120" height="60" as="geometry" />
        </mxCell>
        <mxCell id="NhRSzBWuvwSLOzlCMQlL-15" value="ALERTAS GMM" style="rounded=0;whiteSpace=wrap;html=1;fillColor=#f8cecc;strokeColor=#b85450;strokeWidth=2;fontSize=17;fontStyle=1" vertex="1" parent="NhRSzBWuvwSLOzlCMQlL-2">
          <mxGeometry x="1328.97" y="400" width="120" height="60" as="geometry" />
        </mxCell>
        <mxCell id="NhRSzBWuvwSLOzlCMQlL-16" value="MDM" style="rounded=0;whiteSpace=wrap;html=1;fillColor=#f8cecc;strokeColor=#b85450;strokeWidth=2;fontSize=17;fontStyle=1" vertex="1" parent="NhRSzBWuvwSLOzlCMQlL-2">
          <mxGeometry x="1188.97" y="470" width="120" height="60" as="geometry" />
        </mxCell>
        <mxCell id="NhRSzBWuvwSLOzlCMQlL-17" value="CATÃLOGOS" style="rounded=0;whiteSpace=wrap;html=1;fillColor=#f8cecc;strokeColor=#b85450;strokeWidth=2;fontSize=17;fontStyle=1" vertex="1" parent="NhRSzBWuvwSLOzlCMQlL-2">
          <mxGeometry x="1328.97" y="470" width="120" height="60" as="geometry" />
        </mxCell>
        <mxCell id="WFNdp1j5Sh6ukdSeras9-1" value="&lt;b&gt;&lt;font style=&quot;font-size: 15px;&quot;&gt;AWS&lt;/font&gt;&lt;/b&gt;" style="points=[[0,0],[0.25,0],[0.5,0],[0.75,0],[1,0],[1,0.25],[1,0.5],[1,0.75],[1,1],[0.75,1],[0.5,1],[0.25,1],[0,1],[0,0.75],[0,0.5],[0,0.25]];outlineConnect=0;gradientColor=none;html=1;whiteSpace=wrap;fontSize=12;fontStyle=0;container=1;pointerEvents=0;collapsible=0;recursiveResize=0;shape=mxgraph.aws4.group;grIcon=mxgraph.aws4.group_on_premise;strokeColor=#FF9933;fillColor=none;verticalAlign=top;align=left;spacingLeft=30;fontColor=#FF9933;dashed=0;strokeWidth=2;" parent="NhRSzBWuvwSLOzlCMQlL-2" vertex="1">
          <mxGeometry x="618.97" y="54.46" width="500" height="470" as="geometry" />
        </mxCell>
        <mxCell id="NhRSzBWuvwSLOzlCMQlL-18" value="" style="sketch=0;points=[[0,0,0],[0.25,0,0],[0.5,0,0],[0.75,0,0],[1,0,0],[0,1,0],[0.25,1,0],[0.5,1,0],[0.75,1,0],[1,1,0],[0,0.25,0],[0,0.5,0],[0,0.75,0],[1,0.25,0],[1,0.5,0],[1,0.75,0]];outlineConnect=0;fontColor=#232F3E;fillColor=#ED7100;strokeColor=#ffffff;dashed=0;verticalLabelPosition=bottom;verticalAlign=top;align=center;html=1;fontSize=12;fontStyle=0;aspect=fixed;shape=mxgraph.aws4.resourceIcon;resIcon=mxgraph.aws4.lambda;" vertex="1" parent="WFNdp1j5Sh6ukdSeras9-1">
          <mxGeometry x="190" y="196" width="78" height="78" as="geometry" />
        </mxCell>
        <mxCell id="NhRSzBWuvwSLOzlCMQlL-19" value="" style="sketch=0;points=[[0,0,0],[0.25,0,0],[0.5,0,0],[0.75,0,0],[1,0,0],[0,1,0],[0.25,1,0],[0.5,1,0],[0.75,1,0],[1,1,0],[0,0.25,0],[0,0.5,0],[0,0.75,0],[1,0.25,0],[1,0.5,0],[1,0.75,0]];outlineConnect=0;fontColor=#232F3E;fillColor=#7AA116;strokeColor=#ffffff;dashed=0;verticalLabelPosition=bottom;verticalAlign=top;align=center;html=1;fontSize=12;fontStyle=0;aspect=fixed;shape=mxgraph.aws4.resourceIcon;resIcon=mxgraph.aws4.s3;" vertex="1" parent="WFNdp1j5Sh6ukdSeras9-1">
          <mxGeometry x="280" y="347.03999999999996" width="78" height="78" as="geometry" />
        </mxCell>
        <mxCell id="NhRSzBWuvwSLOzlCMQlL-24" style="edgeStyle=orthogonalEdgeStyle;rounded=0;orthogonalLoop=1;jettySize=auto;html=1;entryX=0;entryY=0.5;entryDx=0;entryDy=0;entryPerimeter=0;" edge="1" parent="WFNdp1j5Sh6ukdSeras9-1" source="NhRSzBWuvwSLOzlCMQlL-18" target="NhRSzBWuvwSLOzlCMQlL-19">
          <mxGeometry relative="1" as="geometry">
            <Array as="points">
              <mxPoint x="229" y="385" />
            </Array>
          </mxGeometry>
        </mxCell>
        <mxCell id="NhRSzBWuvwSLOzlCMQlL-25" value="" style="sketch=0;points=[[0,0,0],[0.25,0,0],[0.5,0,0],[0.75,0,0],[1,0,0],[0,1,0],[0.25,1,0],[0.5,1,0],[0.75,1,0],[1,1,0],[0,0.25,0],[0,0.5,0],[0,0.75,0],[1,0.25,0],[1,0.5,0],[1,0.75,0]];outlineConnect=0;fontColor=#232F3E;fillColor=#E7157B;strokeColor=#ffffff;dashed=0;verticalLabelPosition=bottom;verticalAlign=top;align=center;html=1;fontSize=12;fontStyle=0;aspect=fixed;shape=mxgraph.aws4.resourceIcon;resIcon=mxgraph.aws4.api_gateway;" vertex="1" parent="WFNdp1j5Sh6ukdSeras9-1">
          <mxGeometry x="358" y="196" width="78" height="78" as="geometry" />
        </mxCell>
        <mxCell id="NhRSzBWuvwSLOzlCMQlL-27" value="&lt;span style=&quot;font-size: 16px;&quot;&gt;API Gateway&lt;/span&gt;" style="text;html=1;strokeColor=none;fillColor=none;align=center;verticalAlign=middle;whiteSpace=wrap;rounded=0;fontSize=15;fontStyle=1" vertex="1" parent="WFNdp1j5Sh6ukdSeras9-1">
          <mxGeometry x="320" y="274" width="170" height="30" as="geometry" />
        </mxCell>
        <mxCell id="NhRSzBWuvwSLOzlCMQlL-28" style="edgeStyle=orthogonalEdgeStyle;rounded=0;orthogonalLoop=1;jettySize=auto;html=1;entryX=0;entryY=0.5;entryDx=0;entryDy=0;entryPerimeter=0;" edge="1" parent="WFNdp1j5Sh6ukdSeras9-1" source="NhRSzBWuvwSLOzlCMQlL-18" target="NhRSzBWuvwSLOzlCMQlL-25">
          <mxGeometry relative="1" as="geometry" />
        </mxCell>
        <mxCell id="NhRSzBWuvwSLOzlCMQlL-42" value="" style="sketch=0;points=[[0,0,0],[0.25,0,0],[0.5,0,0],[0.75,0,0],[1,0,0],[0,1,0],[0.25,1,0],[0.5,1,0],[0.75,1,0],[1,1,0],[0,0.25,0],[0,0.5,0],[0,0.75,0],[1,0.25,0],[1,0.5,0],[1,0.75,0]];outlineConnect=0;fontColor=#232F3E;fillColor=#DD344C;strokeColor=#ffffff;dashed=0;verticalLabelPosition=bottom;verticalAlign=top;align=center;html=1;fontSize=12;fontStyle=0;aspect=fixed;shape=mxgraph.aws4.resourceIcon;resIcon=mxgraph.aws4.secrets_manager;" vertex="1" parent="WFNdp1j5Sh6ukdSeras9-1">
          <mxGeometry x="190" y="27.54" width="78" height="78" as="geometry" />
        </mxCell>
        <mxCell id="NhRSzBWuvwSLOzlCMQlL-43" style="edgeStyle=orthogonalEdgeStyle;rounded=0;orthogonalLoop=1;jettySize=auto;html=1;entryX=0.5;entryY=1;entryDx=0;entryDy=0;entryPerimeter=0;" edge="1" parent="WFNdp1j5Sh6ukdSeras9-1" source="NhRSzBWuvwSLOzlCMQlL-18">
          <mxGeometry relative="1" as="geometry">
            <mxPoint x="229" y="105.53999999999999" as="targetPoint" />
          </mxGeometry>
        </mxCell>
        <mxCell id="NhRSzBWuvwSLOzlCMQlL-44" value="&lt;span style=&quot;font-size: 16px;&quot;&gt;Secrets Manager&lt;/span&gt;" style="text;html=1;strokeColor=none;fillColor=none;align=center;verticalAlign=middle;whiteSpace=wrap;rounded=0;fontSize=15;fontStyle=1" vertex="1" parent="WFNdp1j5Sh6ukdSeras9-1">
          <mxGeometry x="150" y="105.53999999999996" width="170" height="30" as="geometry" />
        </mxCell>
        <mxCell id="NhRSzBWuvwSLOzlCMQlL-49" value="" style="sketch=0;points=[[0,0,0],[0.25,0,0],[0.5,0,0],[0.75,0,0],[1,0,0],[0,1,0],[0.25,1,0],[0.5,1,0],[0.75,1,0],[1,1,0],[0,0.25,0],[0,0.5,0],[0,0.75,0],[1,0.25,0],[1,0.5,0],[1,0.75,0]];outlineConnect=0;fontColor=#232F3E;fillColor=#E7157B;strokeColor=#ffffff;dashed=0;verticalLabelPosition=bottom;verticalAlign=top;align=center;html=1;fontSize=12;fontStyle=0;aspect=fixed;shape=mxgraph.aws4.resourceIcon;resIcon=mxgraph.aws4.sqs;" vertex="1" parent="WFNdp1j5Sh6ukdSeras9-1">
          <mxGeometry x="50" y="194.73000000000002" width="80.54" height="80.54" as="geometry" />
        </mxCell>
        <mxCell id="NhRSzBWuvwSLOzlCMQlL-50" value="&lt;span style=&quot;font-size: 16px;&quot;&gt;SQS&lt;/span&gt;" style="text;html=1;strokeColor=none;fillColor=none;align=center;verticalAlign=middle;whiteSpace=wrap;rounded=0;fontSize=15;fontStyle=1" vertex="1" parent="WFNdp1j5Sh6ukdSeras9-1">
          <mxGeometry x="5.27" y="274" width="170" height="30" as="geometry" />
        </mxCell>
        <mxCell id="NhRSzBWuvwSLOzlCMQlL-53" value="" style="outlineConnect=0;dashed=0;verticalLabelPosition=bottom;verticalAlign=top;align=center;html=1;shape=mxgraph.aws3.dynamo_db;fillColor=#2E73B8;gradientColor=none;" vertex="1" parent="WFNdp1j5Sh6ukdSeras9-1">
          <mxGeometry x="70" y="345.54" width="72" height="81" as="geometry" />
        </mxCell>
        <mxCell id="NhRSzBWuvwSLOzlCMQlL-54" style="edgeStyle=orthogonalEdgeStyle;rounded=0;orthogonalLoop=1;jettySize=auto;html=1;entryX=1;entryY=0.5;entryDx=0;entryDy=0;entryPerimeter=0;" edge="1" parent="WFNdp1j5Sh6ukdSeras9-1" source="NhRSzBWuvwSLOzlCMQlL-18" target="NhRSzBWuvwSLOzlCMQlL-53">
          <mxGeometry relative="1" as="geometry">
            <Array as="points">
              <mxPoint x="230" y="386" />
            </Array>
          </mxGeometry>
        </mxCell>
        <mxCell id="NhRSzBWuvwSLOzlCMQlL-55" style="edgeStyle=orthogonalEdgeStyle;rounded=0;orthogonalLoop=1;jettySize=auto;html=1;entryX=0;entryY=0.5;entryDx=0;entryDy=0;entryPerimeter=0;" edge="1" parent="WFNdp1j5Sh6ukdSeras9-1" source="NhRSzBWuvwSLOzlCMQlL-49" target="NhRSzBWuvwSLOzlCMQlL-18">
          <mxGeometry relative="1" as="geometry" />
        </mxCell>
        <mxCell id="NhRSzBWuvwSLOzlCMQlL-56" value="&lt;span style=&quot;font-size: 16px;&quot;&gt;DynamoDB&lt;/span&gt;" style="text;html=1;strokeColor=none;fillColor=none;align=center;verticalAlign=middle;whiteSpace=wrap;rounded=0;fontSize=15;fontStyle=1" vertex="1" parent="WFNdp1j5Sh6ukdSeras9-1">
          <mxGeometry x="20" y="426.54" width="170" height="30" as="geometry" />
        </mxCell>
        <mxCell id="NhRSzBWuvwSLOzlCMQlL-22" value="" style="shape=curlyBracket;whiteSpace=wrap;html=1;rounded=1;labelPosition=left;verticalLabelPosition=middle;align=right;verticalAlign=middle;fontSize=14;strokeWidth=3;" vertex="1" parent="NhRSzBWuvwSLOzlCMQlL-2">
          <mxGeometry x="1128.97" y="40" width="50" height="500" as="geometry" />
        </mxCell>
        <mxCell id="NhRSzBWuvwSLOzlCMQlL-26" style="edgeStyle=orthogonalEdgeStyle;rounded=0;orthogonalLoop=1;jettySize=auto;html=1;entryX=0.1;entryY=0.5;entryDx=0;entryDy=0;entryPerimeter=0;strokeWidth=3;startArrow=none;startFill=0;endArrow=none;endFill=0;" edge="1" parent="NhRSzBWuvwSLOzlCMQlL-2" source="NhRSzBWuvwSLOzlCMQlL-25" target="NhRSzBWuvwSLOzlCMQlL-22">
          <mxGeometry relative="1" as="geometry" />
        </mxCell>
        <mxCell id="EktAlmnSRhTw89N247DK-39" value="&lt;span style=&quot;font-size: 21px;&quot;&gt;Seguridad/&lt;/span&gt;&lt;div style=&quot;&quot;&gt;AutenticaciÃ³n&lt;/div&gt;" style="text;html=1;strokeColor=none;fillColor=none;align=center;verticalAlign=middle;whiteSpace=wrap;rounded=0;fontSize=21;fontStyle=1" parent="NhRSzBWuvwSLOzlCMQlL-2" vertex="1">
          <mxGeometry x="377.21000000000004" y="60" width="202.49" height="60" as="geometry" />
        </mxCell>
        <mxCell id="NhRSzBWuvwSLOzlCMQlL-61" style="edgeStyle=orthogonalEdgeStyle;rounded=0;orthogonalLoop=1;jettySize=auto;html=1;entryX=0.25;entryY=0;entryDx=0;entryDy=0;" edge="1" parent="NhRSzBWuvwSLOzlCMQlL-2" source="NhRSzBWuvwSLOzlCMQlL-29" target="TajNU-aEznaANOfvld2z-5">
          <mxGeometry relative="1" as="geometry" />
        </mxCell>
        <mxCell id="NhRSzBWuvwSLOzlCMQlL-29" value="&lt;font style=&quot;font-size: 19px;&quot;&gt;Siniestros&lt;/font&gt;" style="text;html=1;strokeColor=none;fillColor=none;align=center;verticalAlign=middle;whiteSpace=wrap;rounded=0;fontSize=17;fontStyle=1" vertex="1" parent="NhRSzBWuvwSLOzlCMQlL-2">
          <mxGeometry x="23.780000000000115" y="171.14999999999995" width="109.09" height="40.76" as="geometry" />
        </mxCell>
        <mxCell id="NhRSzBWuvwSLOzlCMQlL-30" value="" style="sketch=0;outlineConnect=0;fontColor=#232F3E;gradientColor=none;fillColor=#E7157B;strokeColor=none;dashed=0;verticalLabelPosition=bottom;verticalAlign=top;align=center;html=1;fontSize=12;fontStyle=0;aspect=fixed;pointerEvents=1;shape=mxgraph.aws4.event;" vertex="1" parent="NhRSzBWuvwSLOzlCMQlL-2">
          <mxGeometry x="53.71" y="131.91" width="49.24" height="49.24" as="geometry" />
        </mxCell>
        <mxCell id="NhRSzBWuvwSLOzlCMQlL-60" style="edgeStyle=orthogonalEdgeStyle;rounded=0;orthogonalLoop=1;jettySize=auto;html=1;entryX=0.5;entryY=0;entryDx=0;entryDy=0;" edge="1" parent="NhRSzBWuvwSLOzlCMQlL-2" source="TajNU-aEznaANOfvld2z-4" target="TajNU-aEznaANOfvld2z-5">
          <mxGeometry relative="1" as="geometry" />
        </mxCell>
        <mxCell id="TajNU-aEznaANOfvld2z-4" value="&lt;font style=&quot;font-size: 19px;&quot;&gt;EmisiÃ³n de&amp;nbsp; polizas&lt;/font&gt;" style="text;html=1;strokeColor=none;fillColor=none;align=center;verticalAlign=middle;whiteSpace=wrap;rounded=0;fontSize=17;fontStyle=1" parent="NhRSzBWuvwSLOzlCMQlL-2" vertex="1">
          <mxGeometry x="30.000000000000114" y="79.99999999999996" width="109.09" height="40.76" as="geometry" />
        </mxCell>
        <mxCell id="NhRSzBWuvwSLOzlCMQlL-1" value="" style="sketch=0;outlineConnect=0;fontColor=#232F3E;gradientColor=none;fillColor=#E7157B;strokeColor=none;dashed=0;verticalLabelPosition=bottom;verticalAlign=top;align=center;html=1;fontSize=12;fontStyle=0;aspect=fixed;pointerEvents=1;shape=mxgraph.aws4.event;" vertex="1" parent="NhRSzBWuvwSLOzlCMQlL-2">
          <mxGeometry x="55.55" y="34.46" width="45.54" height="45.54" as="geometry" />
        </mxCell>
        <mxCell id="NhRSzBWuvwSLOzlCMQlL-31" value="&lt;font style=&quot;font-size: 19px;&quot;&gt;Clientes&lt;/font&gt;" style="text;html=1;strokeColor=none;fillColor=none;align=center;verticalAlign=middle;whiteSpace=wrap;rounded=0;fontSize=17;fontStyle=1" vertex="1" parent="NhRSzBWuvwSLOzlCMQlL-2">
          <mxGeometry x="23.780000000000115" y="258.6999999999999" width="109.09" height="40.76" as="geometry" />
        </mxCell>
        <mxCell id="NhRSzBWuvwSLOzlCMQlL-65" style="edgeStyle=orthogonalEdgeStyle;rounded=0;orthogonalLoop=1;jettySize=auto;html=1;entryX=0;entryY=0.5;entryDx=0;entryDy=0;" edge="1" parent="NhRSzBWuvwSLOzlCMQlL-2" source="NhRSzBWuvwSLOzlCMQlL-32" target="TajNU-aEznaANOfvld2z-5">
          <mxGeometry relative="1" as="geometry" />
        </mxCell>
        <mxCell id="NhRSzBWuvwSLOzlCMQlL-32" value="" style="sketch=0;outlineConnect=0;fontColor=#232F3E;gradientColor=none;fillColor=#E7157B;strokeColor=none;dashed=0;verticalLabelPosition=bottom;verticalAlign=top;align=center;html=1;fontSize=12;fontStyle=0;aspect=fixed;pointerEvents=1;shape=mxgraph.aws4.event;" vertex="1" parent="NhRSzBWuvwSLOzlCMQlL-2">
          <mxGeometry x="50" y="211.91" width="50" height="50" as="geometry" />
        </mxCell>
        <mxCell id="NhRSzBWuvwSLOzlCMQlL-33" value="&lt;font style=&quot;font-size: 19px;&quot;&gt;Pagos&lt;/font&gt;" style="text;html=1;strokeColor=none;fillColor=none;align=center;verticalAlign=middle;whiteSpace=wrap;rounded=0;fontSize=17;fontStyle=1" vertex="1" parent="NhRSzBWuvwSLOzlCMQlL-2">
          <mxGeometry x="23.780000000000115" y="349.45999999999987" width="109.09" height="40.76" as="geometry" />
        </mxCell>
        <mxCell id="NhRSzBWuvwSLOzlCMQlL-66" style="edgeStyle=orthogonalEdgeStyle;rounded=0;orthogonalLoop=1;jettySize=auto;html=1;entryX=0;entryY=0.5;entryDx=0;entryDy=0;" edge="1" parent="NhRSzBWuvwSLOzlCMQlL-2" source="NhRSzBWuvwSLOzlCMQlL-34" target="TajNU-aEznaANOfvld2z-5">
          <mxGeometry relative="1" as="geometry" />
        </mxCell>
        <mxCell id="NhRSzBWuvwSLOzlCMQlL-34" value="" style="sketch=0;outlineConnect=0;fontColor=#232F3E;gradientColor=none;fillColor=#E7157B;strokeColor=none;dashed=0;verticalLabelPosition=bottom;verticalAlign=top;align=center;html=1;fontSize=12;fontStyle=0;aspect=fixed;pointerEvents=1;shape=mxgraph.aws4.event;" vertex="1" parent="NhRSzBWuvwSLOzlCMQlL-2">
          <mxGeometry x="50" y="299.46" width="50" height="50" as="geometry" />
        </mxCell>
        <mxCell id="NhRSzBWuvwSLOzlCMQlL-36" value="&lt;font style=&quot;font-size: 19px;&quot;&gt;Endosos&lt;/font&gt;" style="text;html=1;strokeColor=none;fillColor=none;align=center;verticalAlign=middle;whiteSpace=wrap;rounded=0;fontSize=17;fontStyle=1" vertex="1" parent="NhRSzBWuvwSLOzlCMQlL-2">
          <mxGeometry x="23.780000000000115" y="440.21999999999986" width="109.09" height="40.76" as="geometry" />
        </mxCell>
        <mxCell id="NhRSzBWuvwSLOzlCMQlL-64" style="edgeStyle=orthogonalEdgeStyle;rounded=0;orthogonalLoop=1;jettySize=auto;html=1;entryX=0.25;entryY=1;entryDx=0;entryDy=0;" edge="1" parent="NhRSzBWuvwSLOzlCMQlL-2" source="NhRSzBWuvwSLOzlCMQlL-37" target="TajNU-aEznaANOfvld2z-5">
          <mxGeometry relative="1" as="geometry" />
        </mxCell>
        <mxCell id="NhRSzBWuvwSLOzlCMQlL-37" value="" style="sketch=0;outlineConnect=0;fontColor=#232F3E;gradientColor=none;fillColor=#E7157B;strokeColor=none;dashed=0;verticalLabelPosition=bottom;verticalAlign=top;align=center;html=1;fontSize=12;fontStyle=0;aspect=fixed;pointerEvents=1;shape=mxgraph.aws4.event;" vertex="1" parent="NhRSzBWuvwSLOzlCMQlL-2">
          <mxGeometry x="50" y="390.21999999999997" width="50" height="50" as="geometry" />
        </mxCell>
        <mxCell id="NhRSzBWuvwSLOzlCMQlL-38" value="&lt;font style=&quot;font-size: 19px;&quot;&gt;Reclamaciones&lt;/font&gt;" style="text;html=1;strokeColor=none;fillColor=none;align=center;verticalAlign=middle;whiteSpace=wrap;rounded=0;fontSize=17;fontStyle=1" vertex="1" parent="NhRSzBWuvwSLOzlCMQlL-2">
          <mxGeometry x="23.780000000000115" y="529.9999999999999" width="109.09" height="40.76" as="geometry" />
        </mxCell>
        <mxCell id="NhRSzBWuvwSLOzlCMQlL-63" style="edgeStyle=orthogonalEdgeStyle;rounded=0;orthogonalLoop=1;jettySize=auto;html=1;entryX=0.5;entryY=1;entryDx=0;entryDy=0;" edge="1" parent="NhRSzBWuvwSLOzlCMQlL-2" source="NhRSzBWuvwSLOzlCMQlL-39" target="TajNU-aEznaANOfvld2z-5">
          <mxGeometry relative="1" as="geometry" />
        </mxCell>
        <mxCell id="NhRSzBWuvwSLOzlCMQlL-39" value="" style="sketch=0;outlineConnect=0;fontColor=#232F3E;gradientColor=none;fillColor=#E7157B;strokeColor=none;dashed=0;verticalLabelPosition=bottom;verticalAlign=top;align=center;html=1;fontSize=12;fontStyle=0;aspect=fixed;pointerEvents=1;shape=mxgraph.aws4.event;" vertex="1" parent="NhRSzBWuvwSLOzlCMQlL-2">
          <mxGeometry x="50" y="480" width="50" height="50" as="geometry" />
        </mxCell>
        <mxCell id="NhRSzBWuvwSLOzlCMQlL-58" style="edgeStyle=orthogonalEdgeStyle;rounded=0;orthogonalLoop=1;jettySize=auto;html=1;" edge="1" parent="NhRSzBWuvwSLOzlCMQlL-2" source="TajNU-aEznaANOfvld2z-5" target="NhRSzBWuvwSLOzlCMQlL-3">
          <mxGeometry relative="1" as="geometry" />
        </mxCell>
        <mxCell id="TajNU-aEznaANOfvld2z-5" value="CORE WEE" style="rounded=0;whiteSpace=wrap;html=1;fillColor=#f8cecc;strokeColor=#b85450;strokeWidth=2;fontSize=20;fontStyle=1" parent="NhRSzBWuvwSLOzlCMQlL-2" vertex="1">
          <mxGeometry x="180" y="254.45999999999998" width="130" height="69.99" as="geometry" />
        </mxCell>
        <mxCell id="NhRSzBWuvwSLOzlCMQlL-45" value="" style="shape=image;html=1;verticalAlign=top;verticalLabelPosition=bottom;labelBackgroundColor=#ffffff;imageAspect=0;aspect=fixed;image=https://cdn2.iconfinder.com/data/icons/whcompare-isometric-web-hosting-servers/50/database-128.png" vertex="1" parent="NhRSzBWuvwSLOzlCMQlL-2">
          <mxGeometry x="1468.97" y="160" width="128" height="128" as="geometry" />
        </mxCell>
        <mxCell id="NhRSzBWuvwSLOzlCMQlL-46" value="&lt;span style=&quot;font-size: 16px;&quot;&gt;REPO WEE&lt;/span&gt;" style="text;html=1;strokeColor=none;fillColor=none;align=center;verticalAlign=middle;whiteSpace=wrap;rounded=0;fontSize=15;fontStyle=1" vertex="1" parent="NhRSzBWuvwSLOzlCMQlL-2">
          <mxGeometry x="1447.97" y="290.38" width="170" height="30" as="geometry" />
        </mxCell>
      </root>
    </mxGraphModel>
  </diagram>
</mxfile>
